<svg width="110" height="29" viewBox="0 0 110 29" fill="none" xmlns="http://www.w3.org/2000/svg">
<path d="M14.5857 4.8619C14.5857 7.54705 12.4089 9.72379 9.72379 9.72379C7.03864 9.72379 4.8619 7.54705 4.8619 4.8619C4.8619 2.17675 7.03864 0 9.72379 0C12.4089 0 14.5857 2.17675 14.5857 4.8619Z" fill="#2196F3"/>
<path d="M8.51099 15.3443V28.8458H15.167C20.5137 21.6731 19.859 -2.06012 0 19.9854L8.51099 15.3443Z" fill="#2196F3"/>
<path d="M7.39409 17.292V28.8467C3.94828 26.8645 2.30154 25.4171 0.923475 20.9982L7.39409 17.292Z" fill="#303030"/>
<path d="M16.2219 28.8444C21.8308 19.9321 19.086 11.3382 14.7899 10.2772C26.8429 7.20032 29.2297 23.5395 16.2219 28.8444Z" fill="#303030"/>
<path d="M31.1806 24.9102V13.176H33.951V24.9102H31.1806ZM32.5735 11.5106C32.1347 11.5106 31.7571 11.3655 31.4408 11.0752C31.1245 10.7798 30.9663 10.4258 30.9663 10.0133C30.9663 9.59565 31.1245 9.24169 31.4408 8.95139C31.7571 8.656 32.1347 8.5083 32.5735 8.5083C33.0173 8.5083 33.3949 8.656 33.7061 8.95139C34.0225 9.24169 34.1806 9.59565 34.1806 10.0133C34.1806 10.4258 34.0225 10.7798 33.7061 11.0752C33.3949 11.3655 33.0173 11.5106 32.5735 11.5106Z" fill="#2196F3"/>
<path d="M39.5703 18.0347V24.9102H36.7999V13.176H39.4479V15.1699H39.5856C39.8561 14.5129 40.2872 13.9909 40.879 13.6038C41.476 13.2167 42.2132 13.0232 43.0908 13.0232C43.902 13.0232 44.6087 13.1964 45.2107 13.5427C45.8178 13.889 46.2872 14.3907 46.6189 15.0477C46.9556 15.7047 47.1214 16.5017 47.1163 17.4388V24.9102H44.3459V17.8666C44.3459 17.0823 44.1418 16.4686 43.7336 16.0255C43.3306 15.5824 42.7719 15.3609 42.0576 15.3609C41.5729 15.3609 41.1418 15.4678 40.7642 15.6817C40.3918 15.8906 40.0984 16.1936 39.8841 16.5908C39.6749 16.9881 39.5703 17.4694 39.5703 18.0347Z" fill="#2196F3"/>
<path d="M55.8026 13.176V15.315H49.0449V13.176H55.8026ZM50.7133 10.3647H53.4837V21.3808C53.4837 21.7526 53.5399 22.0378 53.6521 22.2364C53.7695 22.4299 53.9225 22.5623 54.1113 22.6336C54.3001 22.7049 54.5093 22.7406 54.7388 22.7406C54.9123 22.7406 55.0705 22.7279 55.2133 22.7024C55.3613 22.6769 55.4735 22.654 55.5501 22.6336L56.0169 24.7956C55.869 24.8465 55.6572 24.9026 55.3817 24.9637C55.1113 25.0248 54.7797 25.0604 54.3868 25.0706C53.6929 25.091 53.0679 24.9866 52.5118 24.7574C51.9557 24.5231 51.5143 24.1615 51.1878 23.6726C50.8664 23.1837 50.7082 22.5725 50.7133 21.8391V10.3647Z" fill="#2196F3"/>
<path d="M63.1975 25.1394C62.0189 25.1394 61.001 24.8949 60.1439 24.406C59.2918 23.912 58.6362 23.2142 58.177 22.3128C57.7178 21.4062 57.4882 20.3393 57.4882 19.1119C57.4882 17.9048 57.7178 16.8455 58.177 15.9338C58.6413 15.0171 59.2893 14.3041 60.1209 13.7948C60.9526 13.2804 61.9296 13.0232 63.0521 13.0232C63.7766 13.0232 64.4602 13.1404 65.1031 13.3746C65.7511 13.6038 66.3225 13.9603 66.8174 14.4442C67.3174 14.928 67.7103 15.5442 67.996 16.2929C68.2817 17.0365 68.4246 17.9226 68.4246 18.9514V19.7994H58.7893V17.9354H65.7689C65.7638 17.4057 65.649 16.9346 65.4245 16.5221C65.2 16.1045 64.8863 15.776 64.4832 15.5366C64.0852 15.2972 63.6209 15.1775 63.0903 15.1775C62.524 15.1775 62.0265 15.315 61.598 15.5901C61.1694 15.86 60.8352 16.2165 60.5954 16.6596C60.3607 17.0976 60.2408 17.5789 60.2357 18.1034V19.7306C60.2357 20.4131 60.3607 20.9988 60.6107 21.4877C60.8607 21.9716 61.2102 22.3433 61.6592 22.6031C62.1082 22.8577 62.6337 22.9851 63.2357 22.9851C63.6388 22.9851 64.0036 22.929 64.3301 22.817C64.6567 22.6998 64.9398 22.5292 65.1796 22.3051C65.4194 22.0811 65.6006 21.8035 65.723 21.4724L68.3098 21.7627C68.1465 22.4452 67.8353 23.0411 67.3761 23.5504C66.922 24.0546 66.3404 24.4467 65.6312 24.7268C64.922 25.0019 64.1107 25.1394 63.1975 25.1394Z" fill="#2196F3"/>
<path d="M70.7683 24.9102V13.176H73.4546V15.1317H73.577C73.7913 14.4543 74.1587 13.9323 74.6791 13.5656C75.2046 13.1938 75.8041 13.0079 76.4776 13.0079C76.6306 13.0079 76.8016 13.0156 76.9903 13.0309C77.1842 13.041 77.3449 13.0589 77.4725 13.0843V15.6283C77.3551 15.5875 77.1689 15.5519 76.9138 15.5213C76.6638 15.4857 76.4214 15.4678 76.1867 15.4678C75.6816 15.4678 75.2276 15.5773 74.8245 15.7963C74.4265 16.0102 74.1128 16.3082 73.8832 16.6901C73.6536 17.0721 73.5388 17.5127 73.5388 18.0118V24.9102H70.7683Z" fill="#2196F3"/>
<path d="M82.4853 25.147C81.7404 25.147 81.0694 25.0146 80.4725 24.7498C79.8807 24.4798 79.4113 24.0826 79.0643 23.558C78.7225 23.0334 78.5516 22.3866 78.5516 21.6176C78.5516 20.9555 78.674 20.408 78.9189 19.9751C79.1638 19.5422 79.498 19.1959 79.9215 18.9361C80.345 18.6764 80.822 18.4803 81.3526 18.3479C81.8883 18.2104 82.4419 18.1111 83.0133 18.05C83.7021 17.9787 84.2608 17.915 84.6894 17.859C85.118 17.7979 85.4292 17.7062 85.6231 17.584C85.822 17.4566 85.9215 17.2606 85.9215 16.9957V16.9499C85.9215 16.3744 85.7506 15.9288 85.4088 15.613C85.0669 15.2972 84.5746 15.1393 83.9317 15.1393C83.2531 15.1393 82.7149 15.287 82.3169 15.5824C81.924 15.8778 81.6587 16.2267 81.521 16.629L78.9342 16.2623C79.1383 15.5493 79.475 14.9534 79.9444 14.4747C80.4138 13.9909 80.9878 13.6293 81.6664 13.3899C82.345 13.1454 83.095 13.0232 83.9164 13.0232C84.4827 13.0232 85.0465 13.0894 85.6078 13.2218C86.169 13.3543 86.6817 13.5733 87.146 13.8788C87.6103 14.1793 87.9828 14.5893 88.2634 15.1088C88.5491 15.6283 88.692 16.2776 88.692 17.0568V24.9102H86.0287V23.2983H85.9368C85.7685 23.6242 85.5312 23.9298 85.2251 24.215C84.9241 24.4951 84.544 24.7218 84.0848 24.8949C83.6307 25.063 83.0975 25.147 82.4853 25.147ZM83.2047 23.1149C83.7608 23.1149 84.2429 23.0054 84.6511 22.7864C85.0593 22.5623 85.3731 22.2669 85.5924 21.9003C85.8169 21.5336 85.9292 21.1338 85.9292 20.7009V19.3181C85.8424 19.3894 85.6945 19.4556 85.4853 19.5167C85.2812 19.5779 85.0516 19.6313 84.7965 19.6772C84.5414 19.723 84.2889 19.7638 84.0389 19.7994C83.7889 19.8351 83.572 19.8656 83.3883 19.8911C82.9751 19.9471 82.6052 20.0388 82.2786 20.1661C81.9521 20.2934 81.6945 20.4717 81.5057 20.7009C81.3169 20.9249 81.2225 21.2152 81.2225 21.5718C81.2225 22.0811 81.4087 22.4656 81.7812 22.7253C82.1536 22.9851 82.6281 23.1149 83.2047 23.1149Z" fill="#2196F3"/>
<path d="M96.6053 25.1394C95.4318 25.1394 94.4242 24.8822 93.5823 24.3678C92.7456 23.8534 92.1002 23.1429 91.6461 22.2364C91.1971 21.3247 90.9726 20.2756 90.9726 19.0889C90.9726 17.8972 91.2022 16.8455 91.6614 15.9338C92.1206 15.0171 92.7685 14.3041 93.6053 13.7948C94.4471 13.2804 95.442 13.0232 96.59 13.0232C97.5441 13.0232 98.3885 13.1989 99.1232 13.5503C99.863 13.8967 100.452 14.3881 100.891 15.0247C101.33 15.6563 101.58 16.3948 101.641 17.2402H98.9931C98.8859 16.6749 98.6308 16.2038 98.2278 15.8269C97.8298 15.4449 97.2966 15.2539 96.6283 15.2539C96.0619 15.2539 95.5645 15.4067 95.1359 15.7123C94.7073 16.0128 94.3731 16.4457 94.1333 17.011C93.8986 17.5763 93.7813 18.2537 93.7813 19.0431C93.7813 19.8427 93.8986 20.5302 94.1333 21.1057C94.368 21.6762 94.6971 22.1167 95.1206 22.4274C95.5492 22.733 96.0517 22.8857 96.6283 22.8857C97.0364 22.8857 97.4012 22.8093 97.7227 22.6566C98.0492 22.4987 98.3222 22.272 98.5415 21.9766C98.7609 21.6813 98.9115 21.3222 98.9931 20.8995H101.641C101.575 21.7296 101.33 22.4656 100.906 23.1073C100.483 23.7439 99.9064 24.243 99.1768 24.6046C98.4472 24.9611 97.59 25.1394 96.6053 25.1394Z" fill="#2196F3"/>
<path d="M109.786 13.176V15.315H103.028V13.176H109.786ZM104.697 10.3647H107.467V21.3808C107.467 21.7526 107.523 22.0378 107.635 22.2364C107.753 22.4299 107.906 22.5623 108.095 22.6336C108.283 22.7049 108.493 22.7406 108.722 22.7406C108.896 22.7406 109.054 22.7279 109.197 22.7024C109.345 22.6769 109.457 22.654 109.533 22.6336L110 24.7956C109.852 24.8465 109.641 24.9026 109.365 24.9637C109.095 25.0248 108.763 25.0604 108.37 25.0706C107.676 25.091 107.051 24.9866 106.495 24.7574C105.939 24.5231 105.498 24.1615 105.171 23.6726C104.85 23.1837 104.691 22.5725 104.697 21.8391V10.3647Z" fill="#2196F3"/>
</svg>
