<svg width="173" height="40" viewBox="0 0 173 40" fill="none" xmlns="http://www.w3.org/2000/svg">
<path d="M8.81846 35.9862L9.02785 36.4362C9.18197 36.7674 9.26183 37.1283 9.26183 37.4936C9.26183 38.8779 8.13969 40 6.75546 40H4.63092C2.07333 40 0 37.9267 0 35.3691V9.00003C0 4.02947 4.02944 3.35588e-05 9 3.35588e-05H26.3538C26.8915 3.35588e-05 27.3275 0.435976 27.3275 0.973738C27.3275 1.34728 27.1138 1.6879 26.7774 1.85044L8.25259 10.8029C5.42541 12.1692 4.22304 15.5553 5.55545 18.3986C6.24994 19.8806 7.54465 20.9952 9.11344 21.4616L19.177 24.4536C19.7786 24.6325 19.8454 25.458 19.2802 25.7312L11.0573 29.7066C8.72045 30.8363 7.7234 33.6329 8.81846 35.9862Z" fill="#0B4619"/>
<path d="M31.2612 4.05864L31.0576 3.62462C30.8991 3.28657 30.817 2.91777 30.817 2.5444C30.817 1.13917 31.9561 0 33.3614 0H35.4085C37.9443 0 40 2.05569 40 4.5915V31C40 35.9705 35.9705 40 31 40H13.6823C13.1518 40 12.7217 39.5699 12.7217 39.0394C12.7217 38.6709 12.9326 38.3348 13.2645 38.1745L31.7094 29.2656C34.5324 27.9021 35.7373 24.5244 34.4147 21.682C33.7236 20.1967 32.4302 19.0778 30.8609 18.6077L20.8146 15.5979C20.2143 15.418 20.1482 14.5942 20.7122 14.321L29.0569 10.2783C31.37 9.15765 32.3523 6.38572 31.2612 4.05864Z" fill="#FFCC1D"/>
<path d="M60.7797 15.5215C60.7053 14.7034 60.3743 14.0676 59.7868 13.6139C59.2067 13.1528 58.3775 12.9223 57.2992 12.9223C56.5852 12.9223 55.9903 13.0153 55.5143 13.2012C55.0383 13.3871 54.6814 13.6437 54.4434 13.9709C54.2054 14.2907 54.0827 14.6588 54.0753 15.0753C54.0604 15.4174 54.1273 15.7186 54.2761 15.9789C54.4322 16.2392 54.6553 16.4697 54.9454 16.6705C55.2429 16.8639 55.5998 17.0349 56.0163 17.1837C56.4328 17.3324 56.9013 17.4625 57.4219 17.5741L59.3852 18.0203C60.5156 18.2657 61.5122 18.593 62.3749 19.002C63.245 19.411 63.9738 19.8981 64.5613 20.4633C65.1563 21.0286 65.6062 21.6793 65.9111 22.4155C66.216 23.1518 66.3722 23.9773 66.3797 24.892C66.3722 26.3348 66.0078 27.573 65.2864 28.6068C64.565 29.6405 63.5276 30.4325 62.1741 30.9829C60.828 31.5332 59.203 31.8084 57.2992 31.8084C55.3879 31.8084 53.722 31.5221 52.3016 30.9494C50.8811 30.3768 49.7767 29.5067 48.9884 28.3391C48.2001 27.1715 47.7948 25.6952 47.7725 23.9104H53.0601C53.1047 24.6466 53.3018 25.2602 53.6514 25.751C54.0009 26.2418 54.4806 26.6137 55.0904 26.8665C55.7077 27.1194 56.4216 27.2458 57.2322 27.2458C57.9759 27.2458 58.6081 27.1454 59.1287 26.9446C59.6567 26.7438 60.062 26.4649 60.3446 26.108C60.6272 25.751 60.7722 25.342 60.7797 24.8809C60.7722 24.4495 60.6383 24.0814 60.3781 23.7765C60.1178 23.4641 59.7162 23.1964 59.1733 22.9733C58.6378 22.7428 57.9536 22.5308 57.1207 22.3375L54.7334 21.7797C52.7552 21.326 51.1972 20.5935 50.0593 19.5821C48.9215 18.5632 48.3563 17.1874 48.3637 15.4546C48.3563 14.0416 48.7355 12.8033 49.5015 11.7398C50.2676 10.6763 51.3273 9.84713 52.6808 9.25217C54.0344 8.65722 55.5775 8.35974 57.3103 8.35974C59.0803 8.35974 60.616 8.66094 61.9175 9.26333C63.2264 9.85828 64.2415 10.6949 64.9629 11.7733C65.6843 12.8516 66.0524 14.1011 66.0673 15.5215H60.7797Z" fill="#202020"/>
<path d="M73.9988 31.8084C72.9056 31.8084 71.935 31.6262 71.0872 31.2618C70.2469 30.8899 69.5813 30.3321 69.0904 29.5885C68.607 28.8373 68.3653 27.8966 68.3653 26.7661C68.3653 25.8142 68.5326 25.011 68.8673 24.3566C69.202 23.7021 69.6631 23.1704 70.2506 22.7614C70.8381 22.3523 71.5149 22.0437 72.2809 21.8355C73.0469 21.6198 73.8649 21.4748 74.7351 21.4004C75.7093 21.3112 76.4939 21.2182 77.0888 21.1215C77.6838 21.0174 78.1151 20.8724 78.3829 20.6865C78.658 20.4931 78.7956 20.2216 78.7956 19.8721V19.8163C78.7956 19.2437 78.5985 18.8012 78.2044 18.4888C77.8102 18.1765 77.2785 18.0203 76.6092 18.0203C75.8878 18.0203 75.3077 18.1765 74.8689 18.4888C74.4301 18.8012 74.1512 19.2325 74.0323 19.7829L69.0012 19.6044C69.1499 18.5632 69.5329 17.6336 70.1502 16.8155C70.7749 15.99 71.6301 15.343 72.7159 14.8745C73.8092 14.3985 75.1218 14.1605 76.6538 14.1605C77.747 14.1605 78.7547 14.2907 79.6769 14.551C80.5991 14.8038 81.4023 15.1757 82.0865 15.6665C82.7707 16.1499 83.2987 16.7449 83.6705 17.4514C84.0498 18.1579 84.2394 18.9648 84.2394 19.8721V31.5183H79.108V29.1311H78.9741C78.6692 29.7112 78.2787 30.202 77.8028 30.6036C77.3343 31.0052 76.7802 31.3064 76.1406 31.5072C75.5085 31.708 74.7945 31.8084 73.9988 31.8084ZM75.6833 28.2387C76.2708 28.2387 76.7988 28.1197 77.2673 27.8817C77.7433 27.6437 78.1226 27.3165 78.4052 26.9C78.6878 26.4761 78.8291 25.9853 78.8291 25.4275V23.7988C78.6729 23.8806 78.4833 23.955 78.2602 24.0219C78.0445 24.0888 77.8065 24.1521 77.5462 24.2116C77.2859 24.2711 77.0182 24.3231 76.743 24.3677C76.4679 24.4124 76.2038 24.4533 75.951 24.4904C75.4378 24.5722 74.9991 24.6987 74.6346 24.8697C74.2777 25.0408 74.0025 25.2639 73.8091 25.539C73.6232 25.8068 73.5303 26.1266 73.5303 26.4984C73.5303 27.0636 73.7311 27.495 74.1327 27.7924C74.5417 28.0899 75.0586 28.2387 75.6833 28.2387Z" fill="#202020"/>
<path d="M103.583 14.3837L97.704 31.5183H91.457L85.5892 14.3837H91.3343L94.4912 26.1861H94.6697L97.8379 14.3837H103.583Z" fill="#202020"/>
<path d="M113.132 31.8418C111.34 31.8418 109.793 31.4886 108.491 30.7821C107.197 30.0681 106.201 29.053 105.502 27.7367C104.81 26.4129 104.464 24.84 104.464 23.0179C104.464 21.2479 104.814 19.7011 105.513 18.3773C106.212 17.0461 107.197 16.0123 108.469 15.2761C109.741 14.5324 111.239 14.1605 112.965 14.1605C114.184 14.1605 115.3 14.3502 116.311 14.7295C117.323 15.1088 118.196 15.6702 118.933 16.4139C119.669 17.1576 120.242 18.0761 120.651 19.1693C121.06 20.2551 121.264 21.5008 121.264 22.9064V24.2673H106.372V21.0992H116.188C116.181 20.5191 116.043 20.0023 115.776 19.5486C115.508 19.0949 115.14 18.7417 114.671 18.4888C114.21 18.2285 113.679 18.0984 113.076 18.0984C112.466 18.0984 111.92 18.236 111.436 18.5112C110.953 18.7789 110.57 19.147 110.287 19.6155C110.005 20.0766 109.856 20.6009 109.841 21.1884V24.4124C109.841 25.1114 109.979 25.725 110.254 26.253C110.529 26.7736 110.919 27.1789 111.425 27.4689C111.931 27.759 112.533 27.904 113.232 27.904C113.716 27.904 114.154 27.8371 114.549 27.7032C114.943 27.5693 115.281 27.3723 115.564 27.112C115.846 26.8517 116.058 26.5319 116.2 26.1526L121.208 26.2976C121 27.4206 120.543 28.3986 119.836 29.2315C119.137 30.057 118.219 30.7003 117.081 31.1614C115.943 31.615 114.627 31.8418 113.132 31.8418Z" fill="#202020"/>
<path d="M128.97 27.0227L128.992 20.5191H129.751L134.57 14.3837H140.75L133.588 23.1741H132.149L128.97 27.0227ZM124.05 31.5183V8.67209H129.505V31.5183H124.05ZM134.692 31.5183L130.208 24.4012L133.8 20.5303L140.995 31.5183H134.692Z" fill="#202020"/>
<path d="M147.532 31.8084C146.439 31.8084 145.469 31.6262 144.621 31.2618C143.78 30.8899 143.115 30.3321 142.624 29.5885C142.141 28.8373 141.899 27.8966 141.899 26.7661C141.899 25.8142 142.066 25.011 142.401 24.3566C142.736 23.7021 143.197 23.1704 143.784 22.7614C144.372 22.3523 145.048 22.0437 145.814 21.8355C146.58 21.6198 147.398 21.4748 148.269 21.4004C149.243 21.3112 150.027 21.2182 150.622 21.1215C151.217 21.0174 151.649 20.8724 151.916 20.6865C152.192 20.4931 152.329 20.2216 152.329 19.8721V19.8163C152.329 19.2437 152.132 18.8012 151.738 18.4888C151.344 18.1765 150.812 18.0203 150.143 18.0203C149.421 18.0203 148.841 18.1765 148.402 18.4888C147.964 18.8012 147.685 19.2325 147.566 19.7829L142.535 19.6044C142.683 18.5632 143.066 17.6336 143.684 16.8155C144.308 15.99 145.164 15.343 146.249 14.8745C147.343 14.3985 148.655 14.1605 150.187 14.1605C151.281 14.1605 152.288 14.2907 153.21 14.551C154.133 14.8038 154.936 15.1757 155.62 15.6665C156.304 16.1499 156.832 16.7449 157.204 17.4514C157.583 18.1579 157.773 18.9648 157.773 19.8721V31.5183H152.642V29.1311H152.508C152.203 29.7112 151.812 30.202 151.336 30.6036C150.868 31.0052 150.314 31.3064 149.674 31.5072C149.042 31.708 148.328 31.8084 147.532 31.8084ZM149.217 28.2387C149.804 28.2387 150.332 28.1197 150.801 27.8817C151.277 27.6437 151.656 27.3165 151.939 26.9C152.221 26.4761 152.363 25.9853 152.363 25.4275V23.7988C152.206 23.8806 152.017 23.955 151.794 24.0219C151.578 24.0888 151.34 24.1521 151.08 24.2116C150.819 24.2711 150.552 24.3231 150.277 24.3677C150.001 24.4124 149.737 24.4533 149.485 24.4904C148.971 24.5722 148.533 24.6987 148.168 24.8697C147.811 25.0408 147.536 25.2639 147.343 25.539C147.157 25.8068 147.064 26.1266 147.064 26.4984C147.064 27.0636 147.265 27.495 147.666 27.7924C148.075 28.0899 148.592 28.2387 149.217 28.2387Z" fill="#202020"/>
<path d="M161.108 31.5183V14.3837H166.407V17.5072H166.586C166.898 16.3768 167.408 15.5364 168.114 14.986C168.821 14.4283 169.642 14.1494 170.579 14.1494C170.832 14.1494 171.093 14.168 171.36 14.2052C171.628 14.2349 171.877 14.2833 172.108 14.3502V19.0912C171.847 19.002 171.505 18.9313 171.081 18.8793C170.665 18.8272 170.293 18.8012 169.966 18.8012C169.319 18.8012 168.735 18.9462 168.214 19.2363C167.701 19.5189 167.296 19.9167 166.999 20.4299C166.708 20.9356 166.563 21.5305 166.563 22.2147V31.5183H161.108Z" fill="#202020"/>
</svg>
